<svg width="1080" height="1080" xmlns="http://www.w3.org/2000/svg">

 <g>
  <title>Layer 1</title>
  <g stroke="null">
   <title stroke="null">Android Studio</title>
   <path stroke="null" d="m428.88841,137.9733l-243.04513,0a89.48217,89.48217 0 0 0 -89.19352,89.48217a86.59565,86.59565 0 0 0 86.59565,89.19352l248.24087,0l-2.59787,-178.67569z" fill="#073042"/>
   <path stroke="null" d="m982.52327,933.21003l-796.96865,0a89.48217,89.48217 0 0 1 -88.90487,-89.19352l0,-617.13834a89.48217,89.48217 0 0 0 94.96656,89.77083l661.01347,0s129.89348,-11.25743 129.89348,86.59565l0,529.96539z" fill="#4285f4"/>
   <path stroke="null" d="m561.66841,503.98425a49.64817,49.64817 0 1 0 19.05104,95.25522a49.35952,49.35952 0 0 0 -19.05104,-95.25522z"/>
   <path stroke="null" d="m610.73928,617.13591a80.2453,80.2453 0 0 0 -45.8957,-144.32609l2.59787,0a75.91552,75.91552 0 0 1 14.14396,0l0,-49.64817a15.87587,15.87587 0 0 0 -7.50496,-14.14396a15.58722,15.58722 0 0 0 -15.87587,0a15.87587,15.87587 0 0 0 -7.50496,14.14396l0,50.51413a80.53396,80.53396 0 0 0 -35.21556,144.32609l-146.92396,314.05356l95.83252,0l67.83326,-144.32609a35.21556,35.21556 0 0 1 31.75174,-19.917a34.63826,34.63826 0 0 1 31.46309,19.917l69.85383,144.32609l96.98713,0l-151.54239,-314.91952zm-49.07087,-14.14396a49.64817,49.64817 0 0 1 -34.92691,-84.57509a49.35952,49.35952 0 0 1 84.57509,34.92691a49.64817,49.64817 0 0 1 -49.64817,49.64817z" fill="#3870b2"/>
   <path stroke="null" d="m376.35371,181.84843l340.89822,0l0,62.63752l-340.89822,0l0,-62.63752z" fill="#fff"/>
   <path stroke="null" d="m535.11241,503.98425a49.35952,49.35952 0 1 1 -35.21556,14.43261a50.22548,50.22548 0 0 1 35.21556,-14.43261zm19.62835,-28.86522l0,-51.95739a15.87587,15.87587 0 0 0 -7.50496,-14.14396a15.58722,15.58722 0 0 0 -15.87587,0a15.87587,15.87587 0 0 0 -7.50496,14.14396l0,50.51413a80.53396,80.53396 0 0 0 -35.21556,144.32609l-184.44874,396.89674a43.87513,43.87513 0 0 0 3.17517,44.16378a44.45243,44.45243 0 0 0 40.12265,18.76239a43.58648,43.58648 0 0 0 35.79287,-25.9787l122.96583,-264.11674a35.50422,35.50422 0 0 1 31.75174,-19.917a34.63826,34.63826 0 0 1 31.46309,19.917l126.141,262.67348a43.58648,43.58648 0 1 0 78.51339,-38.10209l-189.93313,-395.16482a79.95665,79.95665 0 0 0 28.86522,-79.95665a80.82261,80.82261 0 0 0 -57.73043,-61.77156" fill="#073042"/>
   <path stroke="null" d="m667.89241,236.981a23.09217,23.09217 0 0 1 -16.74183,-39.54535a23.38083,23.38083 0 0 1 39.834,16.45317a23.09217,23.09217 0 0 1 -23.09217,23.09217m-256.61178,0a23.09217,23.09217 0 0 1 -16.45317,-39.54535a23.38083,23.38083 0 1 1 32.90635,32.90635a22.80352,22.80352 0 0 1 -16.45317,6.639m264.98269,-139.9963l46.18435,-80.2453a9.81417,9.81417 0 0 0 -16.74183,-9.81417l-46.76165,81.39991a290.96139,290.96139 0 0 0 -238.42669,0l-47.0503,-81.39991a9.81417,9.81417 0 0 0 -8.37091,-4.90709a10.68013,10.68013 0 0 0 -8.37091,4.90709a9.81417,9.81417 0 0 0 0,9.81417l46.473,80.2453a274.79687,274.79687 0 0 0 -142.01687,219.6643l557.09869,0a274.79687,274.79687 0 0 0 -142.01687,-219.6643" fill="#3ddc84"/>
   <path stroke="null" d="m902.56662,487.81973l-36.65883,0a4.61843,4.61843 0 0 0 -4.61843,4.61843l0,578.7476a4.61843,4.61843 0 0 0 4.32978,4.61843l37.81343,0a80.2453,80.2453 0 0 0 79.95665,-80.2453l0,-587.98447a80.2453,80.2453 0 0 1 -80.82261,80.2453z" fill="#073042"/>
  </g>
 </g>
</svg>